<?xml version="1.0" encoding="utf-8"?>
<!-- Generator: Adobe Illustrator 26.2.1, SVG Export Plug-In . SVG Version: 6.00 Build 0)  -->
<svg version="1.1" id="Layer_1" xmlns="http://www.w3.org/2000/svg" xmlns:xlink="http://www.w3.org/1999/xlink" x="0px" y="0px"
	 viewBox="0 0 357.4 172.2" style="enable-background:new 0 0 357.4 172.2;" xml:space="preserve">
<style type="text/css">
	.st0{fill:#FFFFFF;}
</style>
<g>
	<path class="st0" d="M152.2,152.7c-3.3,0,0-15.1,0-15.1h-12.3c0,0-4.3,27.2,12.5,27.2c13.1,0,17.2-28,17.8-59.7h25.5
		c0,27-2,57.7-2,57.7h13.7V94.1h-48.7C160.4,129.8,154.8,152.7,152.2,152.7z"/>
	<path class="st0" d="M7.3,10C7.3,10,8,27.3,8,44.4S7.3,78.8,7.3,78.8h14.3c0,0-2-30.7-2-57.7h35.3c0,27-2,57.7-2,57.7h14.3
		c0,0-0.7-17.3-0.7-34.4S67.1,10,67.1,10H7.3z"/>
	<path class="st0" d="M273.3,142.6V117c0-20.5-16-24.9-29.2-24.9c-13.2,0-29.1,5.1-29.1,24.1h12.8c0-8.3,5.3-13.2,16.1-13.2
		c10.7,0,15.5,5,15.5,10.2c0,7.3-3.7,9.2-17.1,9.2c-13.4,0-29.2,4.8-29.2,23c0,14.7,11,19.4,23.6,19.4c26,0,23-27.6,25.8-27.4
		c3.4,0.2-5.8,25.5,10.6,25.5h7.1l0.8-12.8C275.5,150.7,273.3,150.4,273.3,142.6z M246.4,152.9c-9.3,3.2-21.2,0.8-21.2-8.4
		s9-14.3,23.5-14.3h10.3C259,139.8,255.7,149.7,246.4,152.9z"/>
	<path class="st0" d="M102.9,7.9c-13.2,0-29.1,5.1-29.1,24.1h12.8c0-8.3,5.3-13.2,16.1-13.2c10.7,0,15.5,5,15.5,10.2
		c0,7.3-3.7,9.2-17.1,9.2c-13.4,0-29.2,4.8-29.2,23c0,14.7,11,19.4,23.6,19.4c26,0,24-27.4,26.9-27.4c1.9,0,0.3,15.8-3.3,25.6h14.3
		c0,0-1.2-18.4-1.2-46C132.1,12.4,116.1,7.9,102.9,7.9z M105.3,68.7C96,72,84.3,69.5,84.3,60.3s8.7-14.3,23.2-14.3h10.3
		C117.8,55.6,114.6,65.5,105.3,68.7z"/>
	<path class="st0" d="M316.6,94.1c-26.3,0-24.3,27.2-26.4,27.2c-2.3,0-1.7-24.5,11.1-34.3c14.1-10.9,42.6-5.2,42.6-5.2l1.5-15.9
		c-32-1-64.7,2.5-64.7,50.8c0,28.2,5.5,48.2,36.8,48.2c17.7,0,32.5-15.8,32.5-35.3S340.4,94.1,316.6,94.1z M315.4,153.5
		c-11.3,0-20.5-6-20.5-25c0-19,10.2-24.6,20.5-24.6s20.5,6.1,20.5,24.6C335.9,147.1,327.5,153.5,315.4,153.5z"/>
	<path class="st0" d="M152.9,78.8l-0.5-30.6H168h15.6l-0.5,30.6h13.6c0,0-1.1-18-1.1-37s1.1-31.9,1.1-31.9h-13.3l0.2,27.5H168h-15.6
		l0.2-27.5h-13.3c0,0,1.1,12.8,1.1,31.9s-1.1,37-1.1,37H152.9z"/>
	<path class="st0" d="M217.1,69.9c0-22.9,13.1-29.8,20.6-22.3c6.8,6.8,18.2,31.6,18.2,31.6h18.4c0,0-17.8-24.9-24-33
		c-11.8-15.5-22.9-4.5-24.7-5.2c-1.8-0.8,11.5-20.3,44-18.5l2.5-15.1C218.6,7,214.7,59,213,58.5c-1.8-0.4,2.3-31.7,4.6-48.3h-13.8
		c0,0-0.6,11.1-0.6,33c0,22,0,35.9,0,35.9h14.7C217.8,79.2,217.1,75.7,217.1,69.9z"/>
</g>
</svg>
